# xmcd
#
# Track frame offsets: 
#        150
#        19606
#        39705
#        62403
#        87015
#        109969
#        131971
#        151122
#
# Disc length: 2289 seconds
#
# Revision: 1
# Processed by: cddbd v1.5.2PL0 Copyright (c) Steve Scherf et al.
# Submitted via: ExactAudioCopy v1.0b3
#
DISCID=5e08ef08
DTITLE=Grupo Niche - Imaginacion
DYEAR=2004
DGENRE=Salsa
TTITLE0=Poquita Cosa
TTITLE1=La Biselada
TTITLE2=Culebra
TTITLE3=Mi Machete
TTITLE4=Amor Bandido
TTITLE5=Ni Como Amiga Ni Como Amante
TTITLE6=Vamos A Ver (Jeringoza)
TTITLE7=California
EXTD=YEAR: 2004
EXTT0=
EXTT1=
EXTT2=
EXTT3=
EXTT4=
EXTT5=
EXTT6=
EXTT7=
PLAYORDER=
